<?xml version="1.0" encoding="utf-8"?>
<!-- Generator: Adobe Illustrator 16.0.0, SVG Export Plug-In . SVG Version: 6.00 Build 0)  -->
<!DOCTYPE svg PUBLIC "-//W3C//DTD SVG 1.1//EN" "http://www.w3.org/Graphics/SVG/1.1/DTD/svg11.dtd">
<svg version="1.1" id="Layer_1" xmlns="http://www.w3.org/2000/svg" xmlns:xlink="http://www.w3.org/1999/xlink" x="0px" y="0px"
	 width="100px" height="100px" viewBox="0 0 100 100" enable-background="new 0 0 100 100" xml:space="preserve">
<g id="Layer_1_1_">
</g>
<g id="Isolation_Mode">
	<path d="M98.762,43.652c-0.186-1.386-1.48-2.582-2.876-2.659l-6.172-0.337c-1.396-0.076-2.899-1.224-3.341-2.55l-2.28-5.518
		c-0.629-1.249-0.379-3.121,0.554-4.161l4.121-4.6c0.934-1.042,0.963-2.77,0.066-3.842l-8.812-8.813
		c-1.073-0.897-2.804-0.867-3.846,0.065l-4.598,4.122c-1.039,0.934-2.915,1.182-4.161,0.551l-5.521-2.279
		c-1.324-0.442-2.473-1.945-2.549-3.34l-0.338-6.17c-0.076-1.396-1.271-2.691-2.658-2.878c0,0-3.252-0.44-6.249-0.44
		c-2.991,0-6.243,0.44-6.243,0.44c-1.386,0.188-2.582,1.483-2.658,2.878l-0.338,6.17c-0.076,1.396-1.224,2.898-2.551,3.34
		l-5.517,2.279c-1.249,0.631-3.122,0.382-4.161-0.551l-4.601-4.122c-1.042-0.932-2.769-0.962-3.842-0.065l-8.813,8.813
		c-0.897,1.073-0.867,2.801,0.066,3.842l4.122,4.6c0.933,1.041,1.182,2.913,0.551,4.161l-2.279,5.518
		c-0.442,1.326-1.946,2.474-3.34,2.55l-6.17,0.337c-1.396,0.077-2.691,1.272-2.879,2.659c0,0-0.439,3.253-0.439,6.243
		s0.44,6.24,0.44,6.24c0.188,1.389,1.483,2.582,2.879,2.659l6.169,0.339c1.396,0.075,2.898,1.225,3.341,2.549l2.278,5.518
		c0.631,1.248,0.381,3.121-0.551,4.162l-4.122,4.599c-0.933,1.042-0.963,2.771-0.066,3.845l8.814,8.813
		c1.073,0.896,2.801,0.866,3.842-0.066l4.6-4.122c1.041-0.932,2.913-1.182,4.161-0.553l5.517,2.28
		c1.327,0.44,2.475,1.946,2.55,3.343l0.338,6.168c0.076,1.395,1.272,2.691,2.658,2.88c0,0,3.252,0.438,6.244,0.438
		c2.997,0,6.25-0.438,6.25-0.438c1.385-0.188,2.58-1.485,2.656-2.88l0.338-6.168c0.076-1.396,1.225-2.9,2.551-3.343l5.517-2.28
		c1.248-0.629,3.122-0.379,4.163,0.553l4.598,4.122c1.042,0.933,2.771,0.964,3.844,0.067l8.814-8.814
		c0.896-1.072,0.866-2.803-0.066-3.845l-4.121-4.599c-0.933-1.041-1.183-2.914-0.554-4.162l2.28-5.518
		c0.441-1.324,1.945-2.474,3.341-2.549l6.173-0.339c1.395-0.077,2.691-1.271,2.875-2.659c0,0,0.441-3.25,0.441-6.24
		S98.762,43.652,98.762,43.652z"/>
</g>
<rect x="29.333" y="28.833" fill="none" width="45" height="45.5"/>
<text transform="matrix(1 0 0 1 29.3335 72.1973)" fill="#FFFFFF" font-family="'VarelaRound-Regular'" font-size="59">D</text>
</svg>
